<mxfile host="65bd71144e">
    <diagram id="Ixh0L4xo7fo8EUwvCHrI" name="PÃ¡gina-1">
        <mxGraphModel dx="872" dy="537" grid="1" gridSize="10" guides="1" tooltips="1" connect="1" arrows="1" fold="1" page="1" pageScale="1" pageWidth="3300" pageHeight="4681" math="0" shadow="0">
            <root>
                <mxCell id="0"/>
                <mxCell id="1" parent="0"/>
                <mxCell id="2" value="&lt;font style=&quot;font-size: 21px;&quot; color=&quot;#000000&quot;&gt;INICIO&lt;/font&gt;" style="ellipse;whiteSpace=wrap;html=1;fillColor=#e51400;fontColor=#ffffff;strokeColor=#B20000;gradientColor=none;" vertex="1" parent="1">
                    <mxGeometry x="330" y="30" width="140" height="100" as="geometry"/>
                </mxCell>
                <mxCell id="3" value="" style="endArrow=classic;html=1;fontSize=21;fontColor=#000000;exitX=0.5;exitY=1;exitDx=0;exitDy=0;" edge="1" parent="1" source="2" target="4">
                    <mxGeometry width="50" height="50" relative="1" as="geometry">
                        <mxPoint x="420" y="300" as="sourcePoint"/>
                        <mxPoint x="400" y="180" as="targetPoint"/>
                    </mxGeometry>
                </mxCell>
                <mxCell id="4" value="R" style="shape=parallelogram;perimeter=parallelogramPerimeter;whiteSpace=wrap;html=1;fixedSize=1;fontSize=21;fontColor=#000000;fillColor=#e3c800;strokeColor=#B09500;" vertex="1" parent="1">
                    <mxGeometry x="310" y="170" width="180" height="90" as="geometry"/>
                </mxCell>
                <mxCell id="5" value="&lt;font color=&quot;#000000&quot;&gt;A= PI*R2&lt;br&gt;P= 2*PI*R&lt;/font&gt;" style="rounded=0;whiteSpace=wrap;html=1;fontSize=21;fontColor=#ffffff;fillColor=#60a917;strokeColor=#2D7600;" vertex="1" parent="1">
                    <mxGeometry x="302.5" y="310" width="195" height="110" as="geometry"/>
                </mxCell>
                <mxCell id="7" value="" style="endArrow=classic;html=1;fontSize=21;fontColor=#000000;exitX=0.5;exitY=1;exitDx=0;exitDy=0;" edge="1" parent="1" source="4">
                    <mxGeometry width="50" height="50" relative="1" as="geometry">
                        <mxPoint x="420" y="300" as="sourcePoint"/>
                        <mxPoint x="400" y="310" as="targetPoint"/>
                    </mxGeometry>
                </mxCell>
                <mxCell id="8" value="" style="endArrow=classic;html=1;fontSize=21;fontColor=#000000;exitX=0.5;exitY=1;exitDx=0;exitDy=0;" edge="1" parent="1" source="5" target="9">
                    <mxGeometry width="50" height="50" relative="1" as="geometry">
                        <mxPoint x="420" y="350" as="sourcePoint"/>
                        <mxPoint x="460" y="480" as="targetPoint"/>
                    </mxGeometry>
                </mxCell>
                <mxCell id="9" value="&lt;font color=&quot;#000000&quot;&gt;A,P&lt;/font&gt;" style="shape=document;whiteSpace=wrap;html=1;boundedLbl=1;fontSize=21;fontColor=#ffffff;fillColor=#1ba1e2;strokeColor=#006EAF;" vertex="1" parent="1">
                    <mxGeometry x="310" y="480" width="180" height="110" as="geometry"/>
                </mxCell>
                <mxCell id="11" value="FIN" style="ellipse;whiteSpace=wrap;html=1;fontSize=21;fontColor=#ffffff;fillColor=#e51400;strokeColor=#B20000;" vertex="1" parent="1">
                    <mxGeometry x="330" y="650" width="140" height="100" as="geometry"/>
                </mxCell>
                <mxCell id="12" value="" style="endArrow=classic;html=1;fontSize=21;fontColor=#000000;exitX=0.5;exitY=0.909;exitDx=0;exitDy=0;exitPerimeter=0;entryX=0.5;entryY=0;entryDx=0;entryDy=0;" edge="1" parent="1" source="9" target="11">
                    <mxGeometry width="50" height="50" relative="1" as="geometry">
                        <mxPoint x="420" y="540" as="sourcePoint"/>
                        <mxPoint x="470" y="490" as="targetPoint"/>
                    </mxGeometry>
                </mxCell>
            </root>
        </mxGraphModel>
    </diagram>
</mxfile>